<svg xmlns="http://www.w3.org/2000/svg" width="351.37" height="352.497" viewBox="0 0 351.37 352.497">
  <g id="Group_1" data-name="Group 1" transform="translate(-41.736 -35.787)">
    <g id="Group_1-2" data-name="Group 1">
      <path id="Path_1" data-name="Path 1" d="M41.736,258.327V118.047h9.675V249.872h71.527v8.455Z" fill="#f0f0f2"/>
      <path id="Path_2" data-name="Path 2" d="M156.767,253.852a39.265,39.265,0,0,1-28.976-12.428,42.246,42.246,0,0,1-8.445-13.352,43.3,43.3,0,0,1-3.021-16.212,41.847,41.847,0,0,1,5.19-20.608,40.077,40.077,0,0,1,14.333-14.994,38.871,38.871,0,0,1,20.764-5.615,37.856,37.856,0,0,1,20.841,5.695,40.891,40.891,0,0,1,14.023,15.006,41.671,41.671,0,0,1,5.113,20.39v2.385a7.759,7.759,0,0,1-.155,1.77H127.326a34.891,34.891,0,0,0,4.881,15.34A31.049,31.049,0,0,0,142.9,241.865a27.466,27.466,0,0,0,14.333,3.929,29.663,29.663,0,0,0,14.952-4.028,22.192,22.192,0,0,0,9.84-10.537l9.142,2.479a30.232,30.232,0,0,1-7.593,10.382,36.523,36.523,0,0,1-12.008,7.205A42.243,42.243,0,0,1,156.767,253.852ZM127.016,208.3h59.657a33,33,0,0,0-4.726-15.333,29.9,29.9,0,0,0-10.693-10.35,28.741,28.741,0,0,0-14.487-3.757,28.324,28.324,0,0,0-14.411,3.757,29.876,29.876,0,0,0-10.614,10.425A33.189,33.189,0,0,0,127.016,208.3Z" fill="#f0f0f2"/>
      <path id="Path_3" data-name="Path 3" d="M272.645,252.3H262.108V207.5q0-14.163-4.184-20.706t-13.171-6.544a27.293,27.293,0,0,0-12.241,3A34.7,34.7,0,0,0,221.9,191.4a31.184,31.184,0,0,0-6.586,11.759V252.3H204.776V171.883h9.607v18.328a36.073,36.073,0,0,1,8.522-10.246,40.3,40.3,0,0,1,11.932-6.857,39.453,39.453,0,0,1,13.79-2.465,23.9,23.9,0,0,1,11.311,2.465,19.067,19.067,0,0,1,7.438,7.011,32.692,32.692,0,0,1,4.028,10.939,75.179,75.179,0,0,1,1.241,14.25Z" fill="#f0f0f2"/>
      <path id="Path_4" data-name="Path 4" d="M282.18,245.174l54.078-65.389H283.42v-7.9h64.769v7.128L294.422,244.4h53.612v7.9H282.18Z" fill="#f0f0f2"/>
    </g>
    <path id="Path_5" data-name="Path 5" d="M216.8,388.284a176.252,176.252,0,0,1-164.116-112,3.5,3.5,0,1,1,6.518-2.551,169.257,169.257,0,0,0,164.9,107.4c93.236-3.993,165.84-83.1,161.846-176.334S302.876,38.964,209.612,42.947A169.177,169.177,0,0,0,66.688,133.913a3.5,3.5,0,0,1-6.207-3.236A176.183,176.183,0,0,1,209.314,35.953,176.246,176.246,0,0,1,346.7,331.214a175.1,175.1,0,0,1-122.3,56.908C221.862,388.23,219.322,388.284,216.8,388.284Z" fill="#f0f0f2"/>
    <path id="Path_6" data-name="Path 6" d="M217.438,365.81A153.842,153.842,0,0,1,79.19,279.416a3.5,3.5,0,0,1,6.292-3.071,146.817,146.817,0,0,0,138.275,82.33c80.87-3.464,143.845-72.076,140.38-152.946A146.8,146.8,0,0,0,211.19,65.347a147.342,147.342,0,0,0-123.968,78.9,3.5,3.5,0,0,1-6.207-3.237A154.36,154.36,0,0,1,210.892,58.354,153.8,153.8,0,0,1,371.131,205.429c3.629,84.727-62.348,156.61-147.075,160.24C221.847,365.763,219.635,365.81,217.438,365.81Z" fill="#f0f0f2"/>
  </g>
</svg>
